<mxfile host="app.diagrams.net" modified="2023-08-17T03:43:14.411Z" agent="Mozilla/5.0 (Windows NT 10.0; Win64; x64) AppleWebKit/537.36 (KHTML, like Gecko) Chrome/115.0.0.0 Safari/537.36" etag="uIcwPV-EDAASfNQdy_2U" version="21.6.8" type="github">
  <diagram name="Page-1" id="c7558073-3199-34d8-9f00-42111426c3f3">
    <mxGraphModel dx="1562" dy="822" grid="1" gridSize="10" guides="1" tooltips="1" connect="1" arrows="1" fold="1" page="1" pageScale="1" pageWidth="3300" pageHeight="4681" background="none" math="0" shadow="0">
      <root>
        <mxCell id="0" />
        <mxCell id="1" parent="0" />
        <mxCell id="nIkuu3i8_g6gluYLM6Xp-17" value="微服务体系" style="rounded=1;whiteSpace=wrap;html=1;verticalAlign=top;strokeColor=default;" vertex="1" parent="1">
          <mxGeometry x="570" y="560" width="840" height="670" as="geometry" />
        </mxCell>
        <mxCell id="nIkuu3i8_g6gluYLM6Xp-26" value="微服务" style="rounded=1;whiteSpace=wrap;html=1;verticalAlign=top;fillColor=#dae8fc;strokeColor=#6c8ebf;" vertex="1" parent="1">
          <mxGeometry x="780" y="700" width="510" height="427.5" as="geometry" />
        </mxCell>
        <mxCell id="nIkuu3i8_g6gluYLM6Xp-48" value="应用层服务" style="rounded=1;whiteSpace=wrap;html=1;verticalAlign=top;fillColor=#d5e8d4;strokeColor=#82b366;" vertex="1" parent="1">
          <mxGeometry x="810" y="740" width="180" height="351" as="geometry" />
        </mxCell>
        <mxCell id="nIkuu3i8_g6gluYLM6Xp-7" value="" style="group" vertex="1" connectable="0" parent="1">
          <mxGeometry x="110" y="200" width="120" height="280" as="geometry" />
        </mxCell>
        <mxCell id="vdXKAvh1aOVkFz7ZYXt5-96" value="设备" style="rounded=1;whiteSpace=wrap;html=1;movable=1;resizable=1;rotatable=1;deletable=1;editable=1;locked=0;connectable=1;arcSize=18;" parent="nIkuu3i8_g6gluYLM6Xp-7" vertex="1">
          <mxGeometry y="120" width="120" height="160" as="geometry" />
        </mxCell>
        <mxCell id="nIkuu3i8_g6gluYLM6Xp-3" style="edgeStyle=orthogonalEdgeStyle;rounded=0;orthogonalLoop=1;jettySize=auto;html=1;entryX=0.25;entryY=0;entryDx=0;entryDy=0;movable=1;resizable=1;rotatable=1;deletable=1;editable=1;locked=0;connectable=1;" edge="1" parent="nIkuu3i8_g6gluYLM6Xp-7" source="2Zfbnfu7nBUBt8mCRP6m-1" target="vdXKAvh1aOVkFz7ZYXt5-96">
          <mxGeometry relative="1" as="geometry" />
        </mxCell>
        <mxCell id="nIkuu3i8_g6gluYLM6Xp-5" value="嵌入" style="edgeLabel;html=1;align=center;verticalAlign=middle;resizable=1;points=[];movable=1;rotatable=1;deletable=1;editable=1;locked=0;connectable=1;" vertex="1" connectable="0" parent="nIkuu3i8_g6gluYLM6Xp-3">
          <mxGeometry x="-0.2067" relative="1" as="geometry">
            <mxPoint as="offset" />
          </mxGeometry>
        </mxCell>
        <mxCell id="2Zfbnfu7nBUBt8mCRP6m-1" value="sdk" style="rounded=1;whiteSpace=wrap;html=1;movable=1;resizable=1;rotatable=1;deletable=1;editable=1;locked=0;connectable=1;" parent="nIkuu3i8_g6gluYLM6Xp-7" vertex="1">
          <mxGeometry x="10" width="40" height="60" as="geometry" />
        </mxCell>
        <mxCell id="nIkuu3i8_g6gluYLM6Xp-4" style="edgeStyle=orthogonalEdgeStyle;rounded=0;orthogonalLoop=1;jettySize=auto;html=1;entryX=0.75;entryY=0;entryDx=0;entryDy=0;movable=1;resizable=1;rotatable=1;deletable=1;editable=1;locked=0;connectable=1;" edge="1" parent="nIkuu3i8_g6gluYLM6Xp-7" source="nIkuu3i8_g6gluYLM6Xp-1" target="vdXKAvh1aOVkFz7ZYXt5-96">
          <mxGeometry relative="1" as="geometry" />
        </mxCell>
        <mxCell id="nIkuu3i8_g6gluYLM6Xp-6" value="烧录" style="edgeLabel;html=1;align=center;verticalAlign=middle;resizable=1;points=[];movable=1;rotatable=1;deletable=1;editable=1;locked=0;connectable=1;" vertex="1" connectable="0" parent="nIkuu3i8_g6gluYLM6Xp-4">
          <mxGeometry x="-0.1733" relative="1" as="geometry">
            <mxPoint as="offset" />
          </mxGeometry>
        </mxCell>
        <mxCell id="nIkuu3i8_g6gluYLM6Xp-1" value="三元组信息" style="rounded=1;whiteSpace=wrap;html=1;movable=1;resizable=1;rotatable=1;deletable=1;editable=1;locked=0;connectable=1;" vertex="1" parent="nIkuu3i8_g6gluYLM6Xp-7">
          <mxGeometry x="70" width="40" height="60" as="geometry" />
        </mxCell>
        <mxCell id="nIkuu3i8_g6gluYLM6Xp-13" style="edgeStyle=orthogonalEdgeStyle;rounded=0;orthogonalLoop=1;jettySize=auto;html=1;exitX=1;exitY=0.25;exitDx=0;exitDy=0;entryX=-0.017;entryY=0.518;entryDx=0;entryDy=0;entryPerimeter=0;" edge="1" parent="1" source="vdXKAvh1aOVkFz7ZYXt5-96" target="4FwgO40YUNbc2sKR7NgQ-1">
          <mxGeometry relative="1" as="geometry" />
        </mxCell>
        <mxCell id="nIkuu3i8_g6gluYLM6Xp-14" value="属性上报" style="edgeLabel;html=1;align=center;verticalAlign=middle;resizable=0;points=[];" vertex="1" connectable="0" parent="nIkuu3i8_g6gluYLM6Xp-13">
          <mxGeometry x="-0.0531" y="1" relative="1" as="geometry">
            <mxPoint as="offset" />
          </mxGeometry>
        </mxCell>
        <mxCell id="nIkuu3i8_g6gluYLM6Xp-18" value="" style="group" vertex="1" connectable="0" parent="1">
          <mxGeometry x="340" y="90" width="120" height="520" as="geometry" />
        </mxCell>
        <mxCell id="4FwgO40YUNbc2sKR7NgQ-1" value="阿里云物联网平台" style="rounded=1;whiteSpace=wrap;html=1;" parent="nIkuu3i8_g6gluYLM6Xp-18" vertex="1">
          <mxGeometry width="120" height="520" as="geometry" />
        </mxCell>
        <mxCell id="nIkuu3i8_g6gluYLM6Xp-8" value="产品设计" style="rounded=1;whiteSpace=wrap;html=1;" vertex="1" parent="nIkuu3i8_g6gluYLM6Xp-18">
          <mxGeometry x="10" y="40" width="100" height="60" as="geometry" />
        </mxCell>
        <mxCell id="nIkuu3i8_g6gluYLM6Xp-9" value="物模型设计" style="rounded=1;whiteSpace=wrap;html=1;" vertex="1" parent="nIkuu3i8_g6gluYLM6Xp-18">
          <mxGeometry x="10" y="120" width="100" height="60" as="geometry" />
        </mxCell>
        <mxCell id="nIkuu3i8_g6gluYLM6Xp-10" value="消息流转" style="rounded=1;whiteSpace=wrap;html=1;" vertex="1" parent="nIkuu3i8_g6gluYLM6Xp-18">
          <mxGeometry x="10" y="370" width="100" height="60" as="geometry" />
        </mxCell>
        <mxCell id="nIkuu3i8_g6gluYLM6Xp-25" value="nginx代理层" style="rounded=1;whiteSpace=wrap;html=1;fillColor=#dae8fc;strokeColor=#6c8ebf;" vertex="1" parent="1">
          <mxGeometry x="400" y="782.5" width="120" height="370" as="geometry" />
        </mxCell>
        <mxCell id="nIkuu3i8_g6gluYLM6Xp-34" value="RocketMq队列" style="rounded=1;whiteSpace=wrap;html=1;" vertex="1" parent="1">
          <mxGeometry x="790" y="620" width="320" height="60" as="geometry" />
        </mxCell>
        <mxCell id="nIkuu3i8_g6gluYLM6Xp-35" value="redis缓存" style="rounded=1;whiteSpace=wrap;html=1;" vertex="1" parent="1">
          <mxGeometry x="940" y="1152.5" width="120" height="60" as="geometry" />
        </mxCell>
        <mxCell id="nIkuu3i8_g6gluYLM6Xp-36" value="mysql数据库" style="rounded=1;whiteSpace=wrap;html=1;" vertex="1" parent="1">
          <mxGeometry x="1090" y="1152.5" width="190" height="60" as="geometry" />
        </mxCell>
        <mxCell id="nIkuu3i8_g6gluYLM6Xp-38" style="edgeStyle=orthogonalEdgeStyle;rounded=0;orthogonalLoop=1;jettySize=auto;html=1;exitX=1;exitY=0.75;exitDx=0;exitDy=0;entryX=0;entryY=0.673;entryDx=0;entryDy=0;entryPerimeter=0;" edge="1" parent="1" source="vdXKAvh1aOVkFz7ZYXt5-96" target="4FwgO40YUNbc2sKR7NgQ-1">
          <mxGeometry relative="1" as="geometry" />
        </mxCell>
        <mxCell id="nIkuu3i8_g6gluYLM6Xp-39" value="事件上报" style="edgeLabel;html=1;align=center;verticalAlign=middle;resizable=0;points=[];" vertex="1" connectable="0" parent="nIkuu3i8_g6gluYLM6Xp-38">
          <mxGeometry x="0.1491" relative="1" as="geometry">
            <mxPoint x="-13" as="offset" />
          </mxGeometry>
        </mxCell>
        <mxCell id="nIkuu3i8_g6gluYLM6Xp-40" value="xxl-job定时任务" style="rounded=1;whiteSpace=wrap;html=1;" vertex="1" parent="1">
          <mxGeometry x="780" y="1152.5" width="130" height="60" as="geometry" />
        </mxCell>
        <mxCell id="nIkuu3i8_g6gluYLM6Xp-41" value="nacos注册中心" style="rounded=1;whiteSpace=wrap;html=1;" vertex="1" parent="1">
          <mxGeometry x="1130" y="620" width="160" height="60" as="geometry" />
        </mxCell>
        <mxCell id="nIkuu3i8_g6gluYLM6Xp-42" value="web后台应用" style="rounded=1;whiteSpace=wrap;html=1;fillColor=#60a917;fontColor=#ffffff;strokeColor=#2D7600;" vertex="1" parent="1">
          <mxGeometry x="840" y="810" width="120" height="40" as="geometry" />
        </mxCell>
        <mxCell id="nIkuu3i8_g6gluYLM6Xp-43" value="移动端后台应用" style="rounded=1;whiteSpace=wrap;html=1;fillColor=#60a917;fontColor=#ffffff;strokeColor=#2D7600;" vertex="1" parent="1">
          <mxGeometry x="840" y="870" width="120" height="50" as="geometry" />
        </mxCell>
        <mxCell id="nIkuu3i8_g6gluYLM6Xp-44" value="小程序应用" style="rounded=1;whiteSpace=wrap;html=1;fillColor=#60a917;fontColor=#ffffff;strokeColor=#2D7600;" vertex="1" parent="1">
          <mxGeometry x="840" y="937.5" width="120" height="42.5" as="geometry" />
        </mxCell>
        <mxCell id="nIkuu3i8_g6gluYLM6Xp-45" value="更多应用..." style="rounded=1;whiteSpace=wrap;html=1;fillColor=#60a917;fontColor=#ffffff;strokeColor=#2D7600;" vertex="1" parent="1">
          <mxGeometry x="840" y="1000" width="120" height="40" as="geometry" />
        </mxCell>
        <mxCell id="nIkuu3i8_g6gluYLM6Xp-51" style="edgeStyle=orthogonalEdgeStyle;rounded=0;orthogonalLoop=1;jettySize=auto;html=1;" edge="1" parent="1" source="nIkuu3i8_g6gluYLM6Xp-19" target="nIkuu3i8_g6gluYLM6Xp-26">
          <mxGeometry relative="1" as="geometry" />
        </mxCell>
        <mxCell id="nIkuu3i8_g6gluYLM6Xp-52" value="" style="group" vertex="1" connectable="0" parent="1">
          <mxGeometry x="600" y="698.75" width="100" height="430" as="geometry" />
        </mxCell>
        <mxCell id="nIkuu3i8_g6gluYLM6Xp-19" value="GateWay" style="rounded=1;whiteSpace=wrap;html=1;fillColor=#ffe6cc;strokeColor=#d79b00;" vertex="1" parent="nIkuu3i8_g6gluYLM6Xp-52">
          <mxGeometry width="100" height="430" as="geometry" />
        </mxCell>
        <mxCell id="nIkuu3i8_g6gluYLM6Xp-20" value="路由转发" style="rounded=1;whiteSpace=wrap;html=1;fillColor=#f9f7ed;strokeColor=#36393d;" vertex="1" parent="nIkuu3i8_g6gluYLM6Xp-52">
          <mxGeometry x="10" y="50" width="80" height="50" as="geometry" />
        </mxCell>
        <mxCell id="nIkuu3i8_g6gluYLM6Xp-21" value="服务鉴权" style="rounded=1;whiteSpace=wrap;html=1;fillColor=#f9f7ed;strokeColor=#36393d;" vertex="1" parent="nIkuu3i8_g6gluYLM6Xp-52">
          <mxGeometry x="10" y="110" width="80" height="50" as="geometry" />
        </mxCell>
        <mxCell id="nIkuu3i8_g6gluYLM6Xp-22" value="接口限流" style="rounded=1;whiteSpace=wrap;html=1;fillColor=#f9f7ed;strokeColor=#36393d;" vertex="1" parent="nIkuu3i8_g6gluYLM6Xp-52">
          <mxGeometry x="10" y="260" width="80" height="50" as="geometry" />
        </mxCell>
        <mxCell id="nIkuu3i8_g6gluYLM6Xp-23" value="统一入口" style="rounded=1;whiteSpace=wrap;html=1;fillColor=#f9f7ed;strokeColor=#36393d;" vertex="1" parent="nIkuu3i8_g6gluYLM6Xp-52">
          <mxGeometry x="10" y="330" width="80" height="50" as="geometry" />
        </mxCell>
        <mxCell id="nIkuu3i8_g6gluYLM6Xp-53" value="" style="group" vertex="1" connectable="0" parent="1">
          <mxGeometry x="1020" y="740" width="250" height="370" as="geometry" />
        </mxCell>
        <mxCell id="nIkuu3i8_g6gluYLM6Xp-46" value="领域服务" style="rounded=1;whiteSpace=wrap;html=1;verticalAlign=top;fillColor=#d5e8d4;strokeColor=#82b366;" vertex="1" parent="nIkuu3i8_g6gluYLM6Xp-53">
          <mxGeometry width="250" height="370" as="geometry" />
        </mxCell>
        <mxCell id="nIkuu3i8_g6gluYLM6Xp-27" value="Auth认证服务" style="rounded=1;whiteSpace=wrap;html=1;fillColor=#60a917;fontColor=#ffffff;strokeColor=#2D7600;" vertex="1" parent="nIkuu3i8_g6gluYLM6Xp-53">
          <mxGeometry x="50" y="60" width="160" height="40" as="geometry" />
        </mxCell>
        <mxCell id="nIkuu3i8_g6gluYLM6Xp-28" value="用户服务" style="rounded=1;whiteSpace=wrap;html=1;fillColor=#60a917;fontColor=#ffffff;strokeColor=#2D7600;" vertex="1" parent="nIkuu3i8_g6gluYLM6Xp-53">
          <mxGeometry x="50" y="120" width="160" height="40" as="geometry" />
        </mxCell>
        <mxCell id="nIkuu3i8_g6gluYLM6Xp-29" value="核心业务服务" style="rounded=1;whiteSpace=wrap;html=1;fillColor=#60a917;fontColor=#ffffff;strokeColor=#2D7600;" vertex="1" parent="nIkuu3i8_g6gluYLM6Xp-53">
          <mxGeometry x="50" y="180" width="160" height="40" as="geometry" />
        </mxCell>
        <mxCell id="nIkuu3i8_g6gluYLM6Xp-30" value="工单服务" style="rounded=1;whiteSpace=wrap;html=1;fillColor=#60a917;fontColor=#ffffff;strokeColor=#2D7600;" vertex="1" parent="nIkuu3i8_g6gluYLM6Xp-53">
          <mxGeometry x="50" y="240" width="160" height="40" as="geometry" />
        </mxCell>
        <mxCell id="nIkuu3i8_g6gluYLM6Xp-33" value="更多服务..." style="rounded=1;whiteSpace=wrap;html=1;fillColor=#60a917;fontColor=#ffffff;strokeColor=#2D7600;" vertex="1" parent="nIkuu3i8_g6gluYLM6Xp-53">
          <mxGeometry x="50" y="300" width="160" height="40" as="geometry" />
        </mxCell>
        <mxCell id="nIkuu3i8_g6gluYLM6Xp-31" style="edgeStyle=orthogonalEdgeStyle;rounded=0;orthogonalLoop=1;jettySize=auto;html=1;exitX=0.5;exitY=1;exitDx=0;exitDy=0;" edge="1" parent="nIkuu3i8_g6gluYLM6Xp-53" source="nIkuu3i8_g6gluYLM6Xp-30" target="nIkuu3i8_g6gluYLM6Xp-30">
          <mxGeometry relative="1" as="geometry" />
        </mxCell>
      </root>
    </mxGraphModel>
  </diagram>
</mxfile>
